<svg width="324" height="163" viewBox="0 0 324 163" fill="none" xmlns="http://www.w3.org/2000/svg">
<path d="M314.5 22.25H322.25L323 22.5L323.25 115.5V137.5L322.5 141L321.5 143.5L319.5 146.5L317.25 149L314.75 150.75L311.25 152.5L308 153.25L305.25 153.5H229.5L229.25 153.25V127.25L229.5 127L282 126.75L284.5 126.25L287.5 124.5L289 122.5L290.25 119.75L290.75 116V115.5L252.25 115.25L248.5 114.5L244.5 112.5L241.75 110.5L239.75 108.25L237.5 104.5L236.5 101.5L236 97V35.75L236.25 22.75L236.5 22.5H268.75V86L269 89L270.75 92.5L272.5 94.25L275.5 95.75L278.5 96.25H290.75V22.75L291 22.5L314.5 22.25Z" fill="#006CAE"/>
<path d="M120.25 21.25L165.5 21.5L169 22.25L172.25 23.5L175.5 25.5L178 27.75L180.25 30.75L182 34.25L182.75 36.5L183.25 40.25V96.5L182.75 100L181.75 103L180 106.25L178 108.75L176.25 110.5L172.75 112.75L169.5 114.25L166.5 115H111.5L108.5 114.25L105.5 113L102.75 111.25L100.25 109L98 106.25L96 102.25L95 98.25L94.75 96.25V40.25L95.25 36.5L96.25 33.5L98 30.25L100 27.75L102 25.75L104.75 24L107.25 22.75L110.75 21.75L112.5 21.5L120.25 21.25Z" fill="#006CAE"/>
<path d="M194 0.25H226.75V114.75H193.75V0.5L194 0.25Z" fill="#006CAE"/>
<path d="M137.5 34H140L144.25 34.5L149.5 35.75L154 37.5L157.5 39.25L161 41.75L163.5 44L166.25 46.75L168.25 49.5L170.25 52.75L172.25 57.5L173.5 63L173.75 65V72.5L172.75 77.75L170.75 83L168 87.75L165.25 91L161.5 94.75L157.75 97.25L153 99.75L148.5 101.25L144 102.25L142 102.5H137L133 102L128.75 101L125.75 100L120.5 97.5L118 95.75L115.5 93.75L111.75 90L110 87.5L108 84.25L106.25 80.5L104.75 75.5L104.25 72.75V63.5L105.25 59L106.75 54.75L109 50.5L111.25 47.5L113.5 45L116.25 42.25L119.25 40L123.25 37.75L127.25 36L130.75 35L134.25 34.25L137.5 34Z" fill="#FB9226"/>
<path d="M136.75 48H140.5L145 48.75L149 50.5L151.75 52.25L154.75 55L157 58.25L158.75 61.75L159.5 64.25L159.75 66V70.75L159 74L157.25 78L155 81.25L152.25 84L148.75 86.25L146 87.5L143.25 88.25L141.25 88.5H136.5L132.25 87.5L129.25 86.25L126 84L123.5 81.75L121.5 79.25L119.5 75.25L118.5 71.75L118.25 70.25V66L119.5 61.25L121.25 57.75L123.25 55L125.25 53L128.75 50.5L131.5 49.25L133.75 48.5L136.75 48Z" fill="#FB9226"/>
<path d="M123.5 42.5H155L157.25 46.5L159.75 50.5L164.5 58.5L166.25 61.25L169.25 66.25L170.25 68.25L169.75 69.5L167.25 73.5L164.75 77.75L162 82.25L158.5 88L155.5 93L154.75 94H123.5L121.75 91.75L120 88.75L116.5 83L114.25 79.25L111.5 74.75L109.5 71.5L108 69V67.5L111 62.75L114.25 57.25L116.25 54L123 42.75L123.5 42.5ZM136.75 48L132.75 48.75L128.75 50.5L126 52.5L123.5 54.75L121.75 57L120.25 59.5L119 62.75L118.25 66V70.25L119.25 74.5L120.5 77.25L122 80L125.25 83.5L128.5 85.75L131.5 87.25L135 88.25L136.5 88.5H141.25L145.25 87.75L148.25 86.5L151.25 84.75L154.25 82L156 80L158 76.5L159.5 72.25L159.75 70.75V66L159 62.5L157.5 59L155.5 56L152.75 53L149.5 50.75L145.75 49L142.5 48.25L140.5 48H136.75Z" fill="#FB9226"/>
<path d="M75.25 119H83.75L84 119.25V128H94.75L96.25 129L97.5 130.5L98.5 132.75L98.75 134L99 141.25V153.25L98.75 153.5H90.25L90 153.25L89.75 134.25L89.5 133.75L88.75 133.5H84V153L83.75 153.25H75.25L75 153V119.25L75.25 119Z" fill="#006CAE"/>
<path d="M172.5 128H181L181.25 128.25L181.5 148H185.75L186.75 147.75L187 147.25L187.25 128H196L196.25 128.25V153.5H176.75L174.75 152.25L173.25 150.25L172.5 148.25V128Z" fill="#006CAE"/>
<path d="M103.25 128.25H123.25L124.75 129.25L126.25 131.25L126.75 132.5L127 134.5V153.5H118.25L118 134.5L117.5 133.5H113L112.5 133.75L112.25 153.5H103.5L103.25 153.25V128.25Z" fill="#006CAE"/>
<path d="M71.75 0.75L76.5 2L80.25 4L83.25 6.75L85.25 9.5L86.75 13L87.5 16L87.75 17.75V42L87 46.75L85.75 50L84 53L82.5 54.75L79.25 57L75.5 58.5L71.75 59.25L68.75 59.5L33.75 59.75V73.25L33.5 116.5H0.25L0 115.5V1L0.25 0.75L65.75 0.5L71.75 0.75ZM32.75 19.75L32.25 20.25V27.25L32.5 40.5L32.75 40.75H47L49.5 40L51.75 38.5L53.75 35.75L54.75 33V27.5L54.5 26.5L53 23.5L51 21.5L49 20.5L46 19.75H32.75Z" fill="#006CAE"/>
<path d="M3.75 122.75H12.75V128H19.75V133.25L13 133.5V148L20.25 148.25V152.75L19.5 153H7L5.75 152.25L4.25 150.5L3.75 148.5L3.5 133.5L0.25 133.25L0 133V128.25L0.25 128L3.75 127.75V122.75Z" fill="#006CAE"/>
<path d="M123.5 42.5H155L157.25 46.5L159.75 50.5L164.5 58.5L166.25 61.25L169.25 66.25L170.25 68.25L169.75 69.5L167.25 73.5L164.75 77.75L162 82.25L158.5 88L155.5 93L154.75 94H123.5L121.75 91.75L120 88.75L116.5 83L114.25 79.25L111.5 74.75L109.5 71.5L108 69V67.5L111 62.75L114.25 57.25L116.25 54L123 42.75L123.5 42.5ZM124.5 44.25L123.5 45.5L120.25 51.25L117.75 55.25L114.5 60.5L111 66.25L110 68L110.5 69.5L114.25 75.5L116.5 79.25L119.75 84.5L122.5 89.25L124.25 92.25L153.25 92.5L154.5 91L156.5 87.5L160.25 81.25L164.25 74.75L168 68.75L167.75 67.5L164.75 62.75L161.5 57.25L158.5 52.5L156.25 48.75L153.75 44.5L153 44.25H124.5Z" fill="#FDFDFD"/>
<path d="M54.75 128.25H70.75V133L70.5 133.25L62 133.5L61.25 133.75L60.75 134.75V147L61 148L70.75 148.25V153.5H55.75L53.75 152.25L52.25 150.5L51.5 148.25V133.25L52.25 130.75L54.25 128.5L54.75 128.25Z" fill="#006CAE"/>
<path d="M136.5 46.25H141.25L145.5 47L149 48.25L152.75 50.5L155.75 53.25L157.75 55.5L160 59.5L161 63L161.5 66.25V71.25L160.75 75L159.25 78.5L157.25 81.5L155 84L152.25 86.25L148.75 88.25L144.5 89.75L140 90.5H137.75L133.25 89.75L129.25 88.25L126.75 87L123.5 84.5L120.75 81.5L118.5 78L117 74L116.5 71.5V65.5L117.25 61.75L118.5 58.5L120.25 55.75L122.5 53L124.5 51.25L128 49L130 48L133.75 46.75L136.5 46.25ZM136.75 48L132.75 48.75L128.75 50.5L126 52.5L123.5 54.75L121.75 57L120.25 59.5L119 62.75L118.25 66V70.25L119.25 74.5L120.5 77.25L122 80L125.25 83.5L128.5 85.75L131.5 87.25L135 88.25L136.5 88.5H141.25L145.25 87.75L148.25 86.5L151.25 84.75L154.25 82L156 80L158 76.5L159.5 72.25L159.75 70.75V66L159 62.5L157.5 59L155.5 56L152.75 53L149.5 50.75L145.75 49L142.5 48.25L140.5 48H136.75Z" fill="#FDFDFD"/>
<path d="M132 128H140.75L141 128.25V153.5H132.25L132 153.25V128Z" fill="#006CAE"/>
<path d="M311.5 0.25H323L323.25 0.5V2.75L323 3L315 3.25L314.75 5.75L323.25 6V8.5L323 8.75L315 9V12L315.25 12.25H323V15.25H311.5V0.25Z" fill="#006CAE"/>
<path d="M287.5 0H289.75L292.25 0.75L293.5 2L294.25 3L294.5 4.75L294.25 5H291.75L290 3.5L289.5 3.25H287L286.25 3.75L286.5 5L291.5 6.25L293.5 7.25L294.5 8.5L295 10V12L293.5 14L292 15L290.25 15.5H287.25L285 14.75L283.25 13.25L282.5 12L282.25 10.25L282.5 10H285.5L286.5 11.75L287.5 12.25H289.75L291 11.5L291.25 10.25L289 9.25L286 8.5L284 7.25L283 6L282.75 4L283.25 2.25L285 0.75L286 0.25L287.5 0Z" fill="#006CAE"/>
<path d="M301.5 0H304L306.25 0.75L308 2.25L308.75 4V4.75L307.75 5H305.75L304 3.5L303.5 3.25H301.25L300.5 3.75V4.75L303.75 5.75L306.75 6.75L308.25 7.75L309 9.25V12L308.25 13.25L306.5 14.75L304.25 15.5H301.5L298.75 14.5L297 12.5L296.5 11.5V10.25L296.75 10H299.5L300.75 11.75L301.75 12.25H304L305.25 11.5L305.5 10.25L304 9.5L300.25 8.5L298.25 7.25L297.25 6L297 5.5V3.5L297.75 2L299.25 0.75L301.5 0Z" fill="#006CAE"/>
<path d="M241.5 0H243.75L246.25 0.75L248 2.75L248.5 3.75V4.75L248 5H245.5L245 4L243.5 3.25H240.75L240.25 3.5V4.75L242.25 5.5L246 6.5L247.5 7.25L248.5 8.5L249 10L248.75 12.25L247 14.25L245 15.25L243.75 15.5H241.5L239 14.75L237 13L236.25 11.25L236.5 10L238.75 9.75L239.5 10L240.5 11.75L242.25 12.5L244 12.25L245.25 11.25L245.5 10L243 9.25L239.5 8.25L237.5 6.75L236.75 5.25V3.5L237.5 2L239 0.75L241.5 0Z" fill="#006CAE"/>
<path d="M267.75 0.5H270.75L271 0.75L271.25 10.75L271.75 11.75L272.75 12.25H275L276 11.75L276.5 10.5L276.75 0.75L277 0.5H279.75L280 0.75V11.5L279.25 13.25L278 14.5L276.25 15.25H271.5L269.75 14.5L268.5 13.25L267.75 11.5V0.5Z" fill="#006CAE"/>
<path d="M168 128.25V162.5L167.75 162.75H159.25L159 162.5L158.75 153.75L148.75 153.5L146.5 152.5L145.25 151L144.5 149.5L144.25 148.25L144 139.5L144.25 133L145 130.75L147 128.5L148 128H167.75L168 128.25ZM154 133.25L153.25 133.75V147.5L153.5 148L154.25 148.25L158.5 148L159 147.5V134.25L158.75 133.75L157.75 133.25H154Z" fill="#006CAE"/>
<path d="M260.25 0.25L262.25 1L264 2.5L265.25 4.75L265.5 5.5V10.25L264.25 12.75L262.5 14.25L260.25 15.25H256L253.5 14.25L251.75 12.5L250.75 10.25L250.5 9V6.5L251.25 3.75L252.75 1.75L254.25 0.75L257.25 0L260.25 0.25ZM256.75 3L255.25 4L254 6L253.75 8.5L254.25 10.25L255.25 11.5L256.75 12.5H259.25L260.25 12L261.5 10.75L262.25 9V6.5L262 5.5L261 4L259.25 3H256.75Z" fill="#006CAE"/>
<path d="M132.25 119H140.75L141 119.25V125.5L140.75 125.75H132.25L132 125.5V119.25L132.25 119Z" fill="#006CAE"/>
<path d="M45.75 129L47.25 131.25L47.5 132.25V143.5H32.75L33 146.5L33.75 147.75L34.25 148L46.75 148.25V153L46.5 153.25H26.75L25 151.75L24.25 150L24 148.75V132.5L24.5 130.5L26 128.5L27 128H44.25L45.75 129ZM33.5 133.25L33.25 133.5L32.75 134.75V138.25L33 138.5H38.25L38.75 138V134.5L38.5 134L37.25 133.25H33.5Z" fill="#006CAE"/>
<path d="M222.75 129.75L223.75 132V143.5L209.25 143.75V146.5L210 147.75L210.75 148L222.75 148.25L223 148.5V152.75L222.75 153.25H203.25L202 152.5L200.75 151L200.25 149.5V131.75L201.25 129.5L202.5 128.25L203.25 128H220.75L222.75 129.75ZM209.5 133.25L209.25 133.5V138.25L209.5 138.5H214.5L215 138.25V134L213.75 133.25H209.5Z" fill="#006CAE"/>
</svg>
