<svg width="598" height="598" viewBox="0 0 598 598" fill="none" xmlns="http://www.w3.org/2000/svg">
<rect width="597.333" height="597.139" rx="82" fill="url(#paint0_linear_19_37)"/>
<path d="M173.781 275.517C217.485 209.791 314.755 192.455 379.367 236.214C390.859 243.999 417.064 266.594 422.59 279.502C426.426 284.34 429.83 291.346 432.369 296.941C426.418 309.938 417.312 322.84 407.229 333.33C356.397 386.184 279.113 427.838 207.043 441.7C194.899 444.036 182.285 444.389 170.151 444.83C157.514 423.612 150.991 407.442 147.448 382.524C142.5 347.713 151.853 303.648 173.781 275.517Z" fill="url(#paint1_linear_19_37)"/>
<path d="M390.675 83.4763C392.421 83.2256 393.702 83.3602 395.448 83.4483C397.755 85.1147 398.972 89.7152 399.412 92.4546C408.174 147.58 379.426 189.877 324.096 200.273C320.922 200.697 319.338 201.16 316.286 200.461C313.761 196.532 313.174 188.318 312.474 183.566C305.104 133.536 340.637 89.2835 390.675 83.4763Z" fill="#F8FAF6"/>
<path d="M281.779 134.424L283.606 134.727C299.425 151.427 303.816 178.511 303.739 200.667L291.787 199.735L288.78 191.106C281.721 173.571 272.4 162.348 255.529 153.626C265.744 144.581 269.814 141.296 281.779 134.424Z" fill="#F8FAF6"/>
<path fill-rule="evenodd" clip-rule="evenodd" d="M128.123 412.938C128.116 412.95 128.11 412.961 128.104 412.973C128.071 413.034 128.038 413.094 128.006 413.155C127.843 413.457 127.68 413.759 127.511 414.073C127.678 413.763 127.843 413.457 128.006 413.155C128.038 413.094 128.071 413.034 128.104 412.973L128.123 412.938Z" fill="url(#paint2_linear_19_37)"/>
<path d="M471.244 308.007C491.731 262.859 452.111 245.08 413.476 250.35L415.382 250.636C434.892 253.642 451.526 260.054 451.486 283.335C451.48 286.647 450.597 290.524 449.781 294.102C449.514 295.273 449.255 296.412 449.035 297.488C416.447 366.939 330.688 414.822 261.502 441.381C229.281 453.754 122.427 481.373 130.357 416.905C131.72 412.933 133.013 408.838 134.294 404.779C134.777 403.248 135.259 401.721 135.742 400.208C132.6 404.622 130.611 408.316 128.123 412.938L128.104 412.973L128.006 413.155L127.511 414.073C119.147 431.329 110.95 454.562 128.663 469.185C146.916 484.253 175.274 482.056 198.351 480.268C200.416 480.108 202.438 479.952 204.408 479.811C208.21 481.832 212.152 484.348 216.142 486.894C219.978 489.343 223.86 491.82 227.705 493.913C248.975 505.468 274.789 511.81 298.936 511.698C339.551 511.682 378.41 495.13 406.54 465.837C442.172 429.308 449.26 392.099 448.595 343.447C451.149 339.874 453.44 336.894 455.553 334.144C461.556 326.335 466.126 320.389 471.244 308.007Z" fill="url(#paint3_linear_19_37)"/>
<defs>
<linearGradient id="paint0_linear_19_37" x1="298.531" y1="594.697" x2="297.681" y2="1.17125" gradientUnits="userSpaceOnUse">
<stop stop-color="#2ABA00"/>
<stop offset="1" stop-color="#60DB3E"/>
</linearGradient>
<linearGradient id="paint1_linear_19_37" x1="286.364" y1="443.307" x2="287.097" y2="291.981" gradientUnits="userSpaceOnUse">
<stop stop-color="#BDEAB1"/>
<stop offset="1" stop-color="#F1F8ED"/>
</linearGradient>
<linearGradient id="paint2_linear_19_37" x1="287.268" y1="509.248" x2="289.871" y2="309.417" gradientUnits="userSpaceOnUse">
<stop stop-color="#A9E298"/>
<stop offset="1" stop-color="#E6F7E2"/>
</linearGradient>
<linearGradient id="paint3_linear_19_37" x1="287.268" y1="509.248" x2="289.871" y2="309.417" gradientUnits="userSpaceOnUse">
<stop stop-color="#A9E298"/>
<stop offset="1" stop-color="#E6F7E2"/>
</linearGradient>
</defs>
</svg>
