<svg width="738" height="155" viewBox="0 0 738 155" fill="none" xmlns="http://www.w3.org/2000/svg">
<path d="M327.216 0.904785C343.59 -0.903625 360.006 3.91959 372.802 14.2983H372.804C396.792 33.866 398.061 59.3291 396.997 87.7476C396.668 96.5015 396.89 105.386 397.066 114.298C397.242 123.197 397.372 132.121 396.856 140.932C396.942 146.675 393.31 151.205 388.744 153.234C384.168 155.266 378.572 154.82 374.765 150.507C372.986 148.491 371.84 145.449 371.106 141.935C370.369 138.41 370.032 134.348 369.913 130.236C369.682 122.311 370.255 114.069 370.346 109.117L343.661 109.084L297.786 108.981C297.767 111.575 297.909 114.531 298.073 117.677C298.247 121.018 298.444 124.568 298.488 128.087C298.575 135.105 298.061 142.102 295.485 147.17V147.171C293.977 150.133 291.597 152.498 288.315 153.475V153.474C285.027 154.454 280.504 154.385 277.455 152.458L277.454 152.457C273.984 150.258 272.127 146.933 271.337 143.027C270.85 140.612 270.563 134.4 270.43 126.354C270.297 118.283 270.32 108.305 270.463 98.314C270.607 88.3223 270.871 78.3126 271.222 70.1763C271.573 62.0593 272.012 55.7596 272.513 53.2231C274.337 43.7996 278.079 34.8484 283.507 26.9302L283.508 26.9282C294.131 11.5873 308.38 4.19249 326.315 1.01514L326.328 1.01318L326.341 1.01123L327.21 0.904785H327.216ZM358.583 36.769C351.14 29.2945 341.636 26.5019 331.26 27.0054C314.778 30.0269 306.431 37.2198 302.167 47.0327C297.924 56.8007 297.692 69.2231 297.726 82.9604L338.456 82.897C348.813 82.881 359.992 83.0747 370.282 82.7417C370.339 66.1432 370.992 49.2313 358.583 36.769Z" fill="#31BD04" stroke="#31BD04"/>
<path d="M47.8525 0.753906C65.3004 -0.495752 83.2804 2.63813 96.7402 15.2061C99.7036 17.9713 102.337 21.697 103.281 25.5605C104.205 29.3379 103.507 33.2449 99.9697 36.4316L99.6182 36.7373C95.4537 40.2523 91.9395 41.0725 88.4326 40.3027C85.0029 39.5498 81.6285 37.2751 77.7432 34.8223L77.7324 34.8164L77.7227 34.8096C70.9438 30.0614 64.6467 27.8805 56.7471 26.7988V26.7979C51.0538 26.0248 44.2793 27.2392 38.957 30.2881C33.6435 33.3319 29.8362 38.1627 29.8965 44.625C29.9387 49.1489 32.1351 52.5507 35.6738 55.2188C39.2301 57.9001 44.1191 59.8198 49.4629 61.3389C54.802 62.8566 60.5418 63.9611 65.7891 65.0381C71.014 66.1105 75.7786 67.1608 79.0908 68.5742H79.0898C88.0572 72.3916 94.571 74.1885 101.379 81.7744H101.378C116.09 97.6271 112.965 124.312 97.0576 138.178C83.4497 150.043 68.8923 153.262 51.3877 152.36H51.3789L51.3711 152.359C39.2873 151.334 27.6664 147.232 17.6123 140.445V140.444C15.0887 138.765 10.7217 135.333 7.04102 131.562C5.19992 129.677 3.51609 127.692 2.32031 125.788C1.13468 123.9 0.380704 122.017 0.515625 120.354C1.1674 112.335 3.16432 107.85 6.11914 105.885C9.10037 103.902 12.8394 104.615 16.5889 106.397C20.3599 108.19 24.3145 111.143 27.8594 113.929C31.4374 116.741 34.5641 119.352 36.7617 120.562L36.7666 120.565C43.9818 124.637 52.2606 126.425 60.5117 125.698C67.8345 125.021 76.2373 122.868 80.6846 117.045L81.0771 116.523C82.0179 115.254 83.112 113.627 83.9092 111.932C84.772 110.096 85.2425 108.273 84.8975 106.757L84.8174 106.458C83.6663 102.741 81.0525 99.8829 77.5186 97.6074C73.9797 95.3289 69.5463 93.6535 64.8164 92.2988C60.0881 90.9446 55.0971 89.9202 50.4443 88.9277C45.8062 87.9383 41.4885 86.9785 38.1592 85.7539H38.1582C31.1658 83.7037 25.158 80.8714 19.1631 76.7256C0.706734 63.9675 -1.61054 36.5276 11.8438 19.2568C21.3394 7.06318 32.9534 3.04618 47.8125 0.758789L47.832 0.755859L47.8525 0.753906Z" fill="#31BD04" stroke="#31BD04"/>
<path d="M619.994 1.01123C625.019 0.415616 632.392 0.626765 637.348 1.4585L637.349 1.45947C653.635 4.22932 668.121 13.4266 677.568 26.9819L678.093 27.7397C683.463 35.6049 687.161 44.4986 688.95 53.8579H688.949C690.329 60.9305 690.558 70.2927 690.489 79.7339C690.419 89.2031 690.05 98.739 690.219 106.254V106.28C690.05 112.225 690.37 118.421 690.528 124.642C690.685 130.849 690.681 137.068 689.851 142.998C688.893 149.874 683.625 153.666 678.071 154.069C672.692 154.459 667.007 151.675 664.656 145.466L664.439 144.855C663.088 140.777 662.927 137.144 663.01 133.615C663.094 130.067 663.419 126.69 663.075 122.983C662.298 114.614 662.767 105.182 663.225 95.5991C663.683 85.9997 664.13 76.2406 663.323 67.1519C662.517 58.0641 660.461 49.6933 655.949 42.8569C651.451 36.0419 644.484 30.7091 633.767 27.728C623.051 26.5015 613.449 27.9148 604.85 34.8413L604.851 34.8423C596.779 41.3497 593.213 49.7237 591.677 58.8403C590.137 67.9823 590.643 77.811 590.684 87.2397L590.998 124.297C591.03 128.005 591.294 132.288 591.051 136.437C590.808 140.597 590.055 144.715 588.012 148.145V148.146C586.299 151.018 583.701 153.022 580.401 153.774C577.031 154.552 573.311 154.079 570.336 152.208L570.051 152.022C566.552 149.669 564.983 146.327 564.225 142.369L564.133 141.842C563.686 139.003 563.406 133.082 563.26 125.616C563.104 117.63 563.103 107.825 563.229 98.0054C563.355 88.1856 563.609 78.3472 563.964 70.2974C564.319 62.2658 564.776 55.9691 565.316 53.2632C567.244 43.4972 571.231 34.2519 577.006 26.1382L577.007 26.1372C587.941 10.8864 601.95 3.96364 619.972 1.01416L619.983 1.01221L619.994 1.01123Z" fill="#31BD04" stroke="#31BD04"/>
<path d="M471.785 0.99292C478.077 0.433184 483.205 0.350291 489.514 1.44312H489.513C505.777 4.2098 520.25 13.3382 529.747 26.8015L530.195 27.446L530.197 27.449C535.525 35.3112 539.187 44.1745 540.96 53.5017H540.959C541.439 55.9837 541.859 62.2514 542.192 70.3455C542.526 78.46 542.774 88.4575 542.902 98.4314C543.03 108.405 543.037 118.359 542.889 126.387C542.815 130.401 542.703 133.938 542.546 136.756C542.41 139.211 542.24 141.146 542.028 142.38L541.935 142.864C541.102 146.716 539.32 150.239 535.788 152.412L535.785 152.414C532.6 154.347 528.736 154.809 525.183 153.7L525.18 153.699C521.894 152.652 519.653 150.861 518.148 148.584C516.651 146.318 515.903 143.603 515.542 140.732C515.18 137.862 515.201 134.799 515.266 131.826C515.332 128.838 515.442 125.951 515.27 123.374C514.453 111.186 515.707 97.1572 515.881 83.5173C516.056 69.8283 515.147 56.476 510.064 45.4246C505.644 35.8213 495.841 30.492 486.357 27.7332C474.878 25.8477 463.064 28.9181 454.7 37.1687L454.303 37.5662C447.624 44.3692 444.736 52.6439 443.536 61.4617C442.333 70.299 442.829 79.6185 442.882 88.533L443.131 124.872V124.873C443.156 129.17 443.55 135.595 442.59 141.301C441.632 146.998 439.283 152.21 433.644 153.816L433.641 153.817C430.097 154.799 426.303 154.279 423.154 152.383L423.152 152.382C419.613 150.233 417.531 146.647 416.752 142.71C416.28 140.32 416.007 134.145 415.883 126.144C415.759 118.118 415.786 108.195 415.928 98.2654C416.07 88.3357 416.328 78.3952 416.665 70.3328C417 62.2895 417.416 56.0691 417.882 53.615C419.616 44.1824 423.294 35.2219 428.677 27.2869L428.679 27.2839C439.394 11.7249 453.619 4.28958 471.74 0.998779L471.762 0.994873L471.785 0.99292Z" fill="#31BD04" stroke="#31BD04"/>
<path d="M194.528 0.985352C203.154 0.28155 212.551 0.105909 221.034 2.11719H221.035C226.225 3.21621 234.883 5.6241 241.614 9.63965C244.978 11.6471 247.902 14.0804 249.656 16.9912C251.422 19.9238 251.985 23.32 250.652 27.1738C249.059 31.7757 246.732 34.4314 243.907 35.6973C241.099 36.9559 237.898 36.7952 234.647 35.9814C231.394 35.1672 228.022 33.6806 224.841 32.2129C221.838 30.8276 219.02 29.4667 216.567 28.6465L216.081 28.4902C205.151 25.1039 191.126 27.5477 181.416 32.7041L181.414 32.7051C169.953 38.7356 161.385 49.1173 157.622 61.5146C153.687 74.6061 155.12 88.7296 161.609 100.757C173.673 122.79 199.059 132 222.429 122.529C226.784 120.759 231.251 118.084 235.421 115.737L235.521 115.681L235.635 115.674C237.771 115.538 239.266 115.676 240.714 116.066C242.142 116.451 243.514 117.079 245.371 117.879H245.37C249.046 119.459 250.846 122.289 251.237 125.494C251.599 128.471 250.744 131.743 249.132 134.637L248.8 135.21C246.096 139.7 241.433 143.168 236.289 145.773C231.46 148.219 226.165 149.925 221.566 151.006L220.656 151.214C200.556 155.647 179.516 151.735 162.355 140.363V140.362C145.461 129.234 133.759 111.769 129.89 91.9053V91.9033C125.981 71.4805 130.476 50.3499 142.355 33.2861C155.307 14.5517 172.494 4.92206 194.48 0.991211L194.503 0.987305L194.528 0.985352Z" fill="#31BD04" stroke="#31BD04"/>
<path d="M719.458 0.814697C725.822 0.308575 730.176 1.49429 732.914 4.45142C735.633 7.38892 736.641 11.9542 736.628 17.9124C736.519 58.925 737.751 100.383 736.161 141.375L735.998 145.341C735.955 146.322 735.518 147.257 734.894 148.107C734.269 148.959 733.433 149.76 732.536 150.483C730.742 151.928 728.643 153.106 727.33 153.794L727.254 153.834L727.17 153.846C722.657 154.505 718.613 153.798 715.616 151.67C712.701 149.601 710.845 146.238 710.483 141.672L710.453 141.227C709.978 132.889 710.061 124.583 710.079 116.27L710.08 112.706L710.064 62.9856V62.9846C710.072 46.739 709.579 26.9414 710.687 10.6526C710.837 8.42622 712.186 6.48231 713.848 4.87134C715.517 3.25335 717.567 1.90891 719.237 0.886963L719.338 0.824463L719.458 0.814697Z" fill="#31BD04" stroke="#31BD04"/>
</svg>
